<svg width="16" height="16" viewBox="0 0 16 16" fill="none" xmlns="http://www.w3.org/2000/svg">
<path d="M7.33337 6.84671L4.66671 2.22671M7.33337 9.15337L4.66671 13.7734M8.00004 14.6667V13.3334M8.00004 13.3334C10.9456 13.3334 13.3334 10.9456 13.3334 8.00004C13.3334 5.05452 10.9456 2.66671 8.00004 2.66671M8.00004 13.3334C5.05452 13.3334 2.66671 10.9456 2.66671 8.00004M8.00004 1.33337V2.66671M8.00004 2.66671C5.05452 2.66671 2.66671 5.05452 2.66671 8.00004M9.33337 8.00004H14.6667M9.33337 8.00004C9.33337 8.73642 8.73642 9.33337 8.00004 9.33337C7.26366 9.33337 6.66671 8.73642 6.66671 8.00004C6.66671 7.26366 7.26366 6.66671 8.00004 6.66671C8.73642 6.66671 9.33337 7.26366 9.33337 8.00004ZM11.3334 13.7734L10.6667 12.62M11.3334 2.22671L10.6667 3.38004M1.33337 8.00004H2.66671M13.7734 11.3334L12.62 10.6667M13.7734 4.66671L12.62 5.33337M2.22671 11.3334L3.38004 10.6667M2.22671 4.66671L3.38004 5.33337" stroke="black" stroke-width="1.33333" stroke-linecap="round" stroke-linejoin="round"/>
</svg>
